<svg width="61" height="61" viewBox="0 0 61 61" fill="none" xmlns="http://www.w3.org/2000/svg">
<rect x="2.0022" y="2.0022" width="56.0617" height="56.0617" rx="28.0308" stroke="#1D476D" stroke-width="4.00441"/>
<path d="M30.089 15L17.998 20.3737V28.4343C17.998 35.8904 23.1568 42.8628 30.089 44.5556C37.0211 42.8628 42.1799 35.8904 42.1799 28.4343V20.3737L30.089 15ZM30.089 20.2394C30.8861 20.2394 31.6653 20.4758 32.3281 20.9186C32.9909 21.3615 33.5074 21.9909 33.8125 22.7274C34.1175 23.4638 34.1973 24.2742 34.0418 25.056C33.8863 25.8378 33.5025 26.5559 32.9388 27.1196C32.3752 27.6832 31.657 28.067 30.8752 28.2226C30.0934 28.3781 29.2831 28.2983 28.5466 27.9932C27.8102 27.6882 27.1807 27.1716 26.7379 26.5088C26.295 25.846 26.0587 25.0668 26.0587 24.2697C26.0587 23.2008 26.4833 22.1757 27.2391 21.4198C27.9949 20.664 29.0201 20.2394 30.089 20.2394ZM30.089 30.8525C32.7758 30.8525 38.1496 32.3169 38.1496 34.9903C37.2672 36.3205 36.0694 37.4116 34.663 38.1664C33.2565 38.9212 31.6851 39.3162 30.089 39.3162C28.4928 39.3162 26.9214 38.9212 25.5149 38.1664C24.1085 37.4116 22.9107 36.3205 22.0283 34.9903C22.0283 32.3169 27.4021 30.8525 30.089 30.8525Z" fill="#1D476D"/>
</svg>
