<svg width="455" height="263" viewBox="0 0 455 263" fill="none" xmlns="http://www.w3.org/2000/svg">
<path d="M189.261 136.281V121.736H198.04V123.298H191.023V128.213H197.585V129.776H191.023V134.719H198.153V136.281H189.261ZM202.663 121.736V136.281H200.987V121.736H202.663ZM210.307 136.509C209.256 136.509 208.349 136.277 207.587 135.812C206.829 135.344 206.245 134.69 205.833 133.852C205.426 133.009 205.222 132.029 205.222 130.912C205.222 129.795 205.426 128.81 205.833 127.957C206.245 127.1 206.818 126.433 207.551 125.955C208.29 125.472 209.152 125.23 210.137 125.23C210.705 125.23 211.266 125.325 211.82 125.514C212.374 125.704 212.878 126.011 213.333 126.438C213.787 126.859 214.15 127.418 214.419 128.114C214.689 128.81 214.824 129.667 214.824 130.685V131.395H206.415V129.946H213.12C213.12 129.33 212.997 128.781 212.75 128.298C212.509 127.815 212.163 127.434 211.713 127.155C211.268 126.875 210.743 126.736 210.137 126.736C209.469 126.736 208.891 126.902 208.404 127.233C207.921 127.56 207.549 127.986 207.289 128.511C207.028 129.037 206.898 129.6 206.898 130.202V131.168C206.898 131.991 207.04 132.69 207.324 133.263C207.613 133.831 208.013 134.264 208.525 134.562C209.036 134.856 209.63 135.003 210.307 135.003C210.748 135.003 211.145 134.941 211.5 134.818C211.86 134.69 212.17 134.501 212.431 134.25C212.691 133.994 212.892 133.677 213.034 133.298L214.654 133.753C214.483 134.302 214.197 134.785 213.794 135.202C213.392 135.614 212.895 135.936 212.303 136.168C211.711 136.395 211.046 136.509 210.307 136.509ZM221.806 136.509C220.783 136.509 219.902 136.267 219.164 135.784C218.425 135.301 217.857 134.636 217.459 133.788C217.061 132.941 216.863 131.973 216.863 130.884C216.863 129.776 217.066 128.798 217.473 127.95C217.885 127.098 218.458 126.433 219.192 125.955C219.931 125.472 220.792 125.23 221.777 125.23C222.544 125.23 223.236 125.372 223.851 125.656C224.467 125.94 224.971 126.338 225.364 126.849C225.757 127.361 226.001 127.957 226.096 128.639H224.419C224.292 128.142 224.007 127.702 223.567 127.318C223.132 126.93 222.544 126.736 221.806 126.736C221.152 126.736 220.579 126.906 220.087 127.247C219.599 127.583 219.218 128.059 218.944 128.675C218.674 129.286 218.539 130.003 218.539 130.827C218.539 131.67 218.671 132.403 218.936 133.028C219.206 133.653 219.585 134.139 220.073 134.484C220.565 134.83 221.143 135.003 221.806 135.003C222.241 135.003 222.637 134.927 222.992 134.776C223.347 134.624 223.648 134.406 223.894 134.122C224.14 133.838 224.315 133.497 224.419 133.099H226.096C226.001 133.743 225.766 134.323 225.392 134.839C225.023 135.351 224.533 135.758 223.922 136.061C223.316 136.359 222.611 136.509 221.806 136.509ZM233.29 125.372V126.793H227.637V125.372H233.29ZM229.284 122.759H230.961V133.156C230.961 133.63 231.029 133.985 231.167 134.222C231.309 134.454 231.489 134.61 231.706 134.69C231.929 134.766 232.163 134.804 232.409 134.804C232.594 134.804 232.746 134.795 232.864 134.776C232.982 134.752 233.077 134.733 233.148 134.719L233.489 136.224C233.375 136.267 233.217 136.31 233.013 136.352C232.81 136.4 232.551 136.423 232.239 136.423C231.766 136.423 231.301 136.321 230.847 136.118C230.397 135.914 230.023 135.604 229.725 135.188C229.431 134.771 229.284 134.245 229.284 133.611V122.759ZM235.811 136.281V125.372H237.431V127.02H237.544C237.743 126.48 238.103 126.042 238.624 125.706C239.145 125.37 239.732 125.202 240.385 125.202C240.508 125.202 240.662 125.204 240.847 125.209C241.032 125.214 241.171 125.221 241.266 125.23V126.935C241.209 126.92 241.079 126.899 240.875 126.871C240.676 126.838 240.466 126.821 240.243 126.821C239.713 126.821 239.239 126.932 238.823 127.155C238.411 127.373 238.084 127.676 237.843 128.064C237.606 128.447 237.488 128.885 237.488 129.378V136.281H235.811ZM247.353 136.509C246.368 136.509 245.504 136.274 244.76 135.805C244.022 135.337 243.444 134.681 243.027 133.838C242.615 132.995 242.409 132.01 242.409 130.884C242.409 129.747 242.615 128.755 243.027 127.908C243.444 127.06 244.022 126.402 244.76 125.933C245.504 125.464 246.368 125.23 247.353 125.23C248.337 125.23 249.199 125.464 249.938 125.933C250.681 126.402 251.259 127.06 251.671 127.908C252.087 128.755 252.296 129.747 252.296 130.884C252.296 132.01 252.087 132.995 251.671 133.838C251.259 134.681 250.681 135.337 249.938 135.805C249.199 136.274 248.337 136.509 247.353 136.509ZM247.353 135.003C248.101 135.003 248.716 134.811 249.199 134.428C249.682 134.044 250.04 133.54 250.272 132.915C250.504 132.29 250.62 131.613 250.62 130.884C250.62 130.154 250.504 129.475 250.272 128.845C250.04 128.215 249.682 127.706 249.199 127.318C248.716 126.93 248.101 126.736 247.353 126.736C246.605 126.736 245.989 126.93 245.506 127.318C245.023 127.706 244.666 128.215 244.434 128.845C244.202 129.475 244.086 130.154 244.086 130.884C244.086 131.613 244.202 132.29 244.434 132.915C244.666 133.54 245.023 134.044 245.506 134.428C245.989 134.811 246.605 135.003 247.353 135.003ZM260.707 121.736H262.809L267.752 133.81H267.923L272.866 121.736H274.968V136.281H273.32V125.23H273.178L268.633 136.281H267.042L262.496 125.23H262.354V136.281H260.707V121.736ZM282.846 136.509C281.795 136.509 280.888 136.277 280.126 135.812C279.368 135.344 278.784 134.69 278.372 133.852C277.965 133.009 277.761 132.029 277.761 130.912C277.761 129.795 277.965 128.81 278.372 127.957C278.784 127.1 279.357 126.433 280.091 125.955C280.829 125.472 281.691 125.23 282.676 125.23C283.244 125.23 283.805 125.325 284.359 125.514C284.913 125.704 285.417 126.011 285.872 126.438C286.326 126.859 286.689 127.418 286.958 128.114C287.228 128.81 287.363 129.667 287.363 130.685V131.395H278.954V129.946H285.659C285.659 129.33 285.536 128.781 285.289 128.298C285.048 127.815 284.702 127.434 284.252 127.155C283.807 126.875 283.282 126.736 282.676 126.736C282.008 126.736 281.431 126.902 280.943 127.233C280.46 127.56 280.088 127.986 279.828 128.511C279.567 129.037 279.437 129.6 279.437 130.202V131.168C279.437 131.991 279.579 132.69 279.863 133.263C280.152 133.831 280.552 134.264 281.064 134.562C281.575 134.856 282.169 135.003 282.846 135.003C283.287 135.003 283.684 134.941 284.039 134.818C284.399 134.69 284.709 134.501 284.97 134.25C285.23 133.994 285.431 133.677 285.574 133.298L287.193 133.753C287.022 134.302 286.736 134.785 286.333 135.202C285.931 135.614 285.434 135.936 284.842 136.168C284.25 136.395 283.585 136.509 282.846 136.509ZM294.345 136.509C293.322 136.509 292.441 136.267 291.703 135.784C290.964 135.301 290.396 134.636 289.998 133.788C289.6 132.941 289.402 131.973 289.402 130.884C289.402 129.776 289.605 128.798 290.012 127.95C290.424 127.098 290.997 126.433 291.731 125.955C292.47 125.472 293.332 125.23 294.316 125.23C295.083 125.23 295.775 125.372 296.39 125.656C297.006 125.94 297.51 126.338 297.903 126.849C298.296 127.361 298.54 127.957 298.635 128.639H296.958C296.831 128.142 296.547 127.702 296.106 127.318C295.671 126.93 295.083 126.736 294.345 126.736C293.691 126.736 293.118 126.906 292.626 127.247C292.138 127.583 291.757 128.059 291.483 128.675C291.213 129.286 291.078 130.003 291.078 130.827C291.078 131.67 291.21 132.403 291.475 133.028C291.745 133.653 292.124 134.139 292.612 134.484C293.104 134.83 293.682 135.003 294.345 135.003C294.78 135.003 295.176 134.927 295.531 134.776C295.886 134.624 296.187 134.406 296.433 134.122C296.679 133.838 296.854 133.497 296.958 133.099H298.635C298.54 133.743 298.306 134.323 297.931 134.839C297.562 135.351 297.072 135.758 296.461 136.061C295.855 136.359 295.15 136.509 294.345 136.509ZM305.517 136.509C304.494 136.509 303.613 136.267 302.875 135.784C302.136 135.301 301.568 134.636 301.17 133.788C300.772 132.941 300.574 131.973 300.574 130.884C300.574 129.776 300.777 128.798 301.184 127.95C301.596 127.098 302.169 126.433 302.903 125.955C303.642 125.472 304.503 125.23 305.488 125.23C306.255 125.23 306.947 125.372 307.562 125.656C308.178 125.94 308.682 126.338 309.075 126.849C309.468 127.361 309.712 127.957 309.806 128.639H308.13C308.002 128.142 307.718 127.702 307.278 127.318C306.842 126.93 306.255 126.736 305.517 126.736C304.863 126.736 304.29 126.906 303.798 127.247C303.31 127.583 302.929 128.059 302.654 128.675C302.385 129.286 302.25 130.003 302.25 130.827C302.25 131.67 302.382 132.403 302.647 133.028C302.917 133.653 303.296 134.139 303.784 134.484C304.276 134.83 304.854 135.003 305.517 135.003C305.952 135.003 306.348 134.927 306.703 134.776C307.058 134.624 307.359 134.406 307.605 134.122C307.851 133.838 308.026 133.497 308.13 133.099H309.806C309.712 133.743 309.477 134.323 309.103 134.839C308.734 135.351 308.244 135.758 307.633 136.061C307.027 136.359 306.322 136.509 305.517 136.509ZM313.933 129.719V136.281H312.257V121.736H313.933V127.077H314.075C314.331 126.513 314.714 126.066 315.225 125.734C315.742 125.398 316.428 125.23 317.285 125.23C318.029 125.23 318.68 125.379 319.238 125.678C319.797 125.971 320.23 126.423 320.538 127.034C320.85 127.64 321.007 128.412 321.007 129.349V136.281H319.331V129.463C319.331 128.597 319.106 127.927 318.656 127.453C318.211 126.975 317.593 126.736 316.802 126.736C316.253 126.736 315.761 126.852 315.325 127.084C314.894 127.316 314.553 127.654 314.302 128.099C314.056 128.545 313.933 129.084 313.933 129.719ZM327.283 136.537C326.592 136.537 325.965 136.407 325.401 136.146C324.838 135.881 324.39 135.5 324.059 135.003C323.728 134.501 323.562 133.895 323.562 133.185C323.562 132.56 323.685 132.053 323.931 131.665C324.177 131.272 324.506 130.964 324.918 130.741C325.33 130.519 325.785 130.353 326.282 130.244C326.784 130.131 327.288 130.041 327.795 129.974C328.458 129.889 328.995 129.825 329.407 129.783C329.824 129.735 330.127 129.657 330.316 129.548C330.51 129.439 330.607 129.25 330.607 128.98V128.923C330.607 128.223 330.415 127.678 330.032 127.29C329.653 126.902 329.078 126.707 328.306 126.707C327.506 126.707 326.879 126.883 326.424 127.233C325.969 127.583 325.65 127.957 325.465 128.355L323.874 127.787C324.158 127.124 324.537 126.608 325.011 126.239C325.489 125.865 326.01 125.604 326.573 125.457C327.141 125.306 327.7 125.23 328.249 125.23C328.6 125.23 329.002 125.273 329.457 125.358C329.916 125.438 330.359 125.607 330.785 125.862C331.216 126.118 331.573 126.504 331.857 127.02C332.141 127.536 332.283 128.227 332.283 129.094V136.281H330.607V134.804H330.522C330.408 135.041 330.219 135.294 329.954 135.564C329.689 135.834 329.336 136.063 328.896 136.253C328.455 136.442 327.918 136.537 327.283 136.537ZM327.539 135.031C328.202 135.031 328.761 134.901 329.215 134.641C329.674 134.38 330.02 134.044 330.252 133.632C330.489 133.22 330.607 132.787 330.607 132.332V130.798C330.536 130.884 330.38 130.962 330.138 131.033C329.902 131.099 329.627 131.158 329.315 131.21C329.007 131.258 328.706 131.3 328.413 131.338C328.124 131.371 327.889 131.4 327.71 131.423C327.274 131.48 326.867 131.572 326.488 131.7C326.114 131.823 325.811 132.01 325.579 132.261C325.352 132.508 325.238 132.844 325.238 133.27C325.238 133.852 325.453 134.293 325.884 134.591C326.32 134.884 326.871 135.031 327.539 135.031ZM337.019 129.719V136.281H335.343V125.372H336.962V127.077H337.104C337.36 126.523 337.748 126.078 338.269 125.741C338.79 125.401 339.462 125.23 340.286 125.23C341.025 125.23 341.671 125.382 342.225 125.685C342.779 125.983 343.21 126.438 343.517 127.048C343.825 127.654 343.979 128.421 343.979 129.349V136.281H342.303V129.463C342.303 128.606 342.08 127.938 341.635 127.46C341.19 126.977 340.579 126.736 339.803 126.736C339.268 126.736 338.79 126.852 338.368 127.084C337.952 127.316 337.623 127.654 337.381 128.099C337.14 128.545 337.019 129.084 337.019 129.719ZM347.042 136.281V125.372H348.718V136.281H347.042ZM347.894 123.554C347.567 123.554 347.286 123.443 347.049 123.22C346.817 122.998 346.701 122.73 346.701 122.418C346.701 122.105 346.817 121.838 347.049 121.615C347.286 121.393 347.567 121.281 347.894 121.281C348.221 121.281 348.5 121.393 348.732 121.615C348.969 121.838 349.087 122.105 349.087 122.418C349.087 122.73 348.969 122.998 348.732 123.22C348.5 123.443 348.221 123.554 347.894 123.554ZM356.22 136.509C355.197 136.509 354.316 136.267 353.578 135.784C352.839 135.301 352.271 134.636 351.873 133.788C351.475 132.941 351.277 131.973 351.277 130.884C351.277 129.776 351.48 128.798 351.887 127.95C352.299 127.098 352.872 126.433 353.606 125.955C354.345 125.472 355.207 125.23 356.191 125.23C356.958 125.23 357.65 125.372 358.265 125.656C358.881 125.94 359.385 126.338 359.778 126.849C360.171 127.361 360.415 127.957 360.51 128.639H358.833C358.706 128.142 358.422 127.702 357.981 127.318C357.546 126.93 356.958 126.736 356.22 126.736C355.566 126.736 354.993 126.906 354.501 127.247C354.013 127.583 353.632 128.059 353.358 128.675C353.088 129.286 352.953 130.003 352.953 130.827C352.953 131.67 353.085 132.403 353.35 133.028C353.62 133.653 353.999 134.139 354.487 134.484C354.979 134.83 355.557 135.003 356.22 135.003C356.655 135.003 357.051 134.927 357.406 134.776C357.761 134.624 358.062 134.406 358.308 134.122C358.554 133.838 358.729 133.497 358.833 133.099H360.51C360.415 133.743 360.181 134.323 359.806 134.839C359.437 135.351 358.947 135.758 358.336 136.061C357.73 136.359 357.025 136.509 356.22 136.509ZM366.17 136.537C365.479 136.537 364.851 136.407 364.288 136.146C363.725 135.881 363.277 135.5 362.946 135.003C362.614 134.501 362.449 133.895 362.449 133.185C362.449 132.56 362.572 132.053 362.818 131.665C363.064 131.272 363.393 130.964 363.805 130.741C364.217 130.519 364.672 130.353 365.169 130.244C365.671 130.131 366.175 130.041 366.681 129.974C367.344 129.889 367.882 129.825 368.294 129.783C368.71 129.735 369.013 129.657 369.203 129.548C369.397 129.439 369.494 129.25 369.494 128.98V128.923C369.494 128.223 369.302 127.678 368.919 127.29C368.54 126.902 367.965 126.707 367.193 126.707C366.393 126.707 365.765 126.883 365.311 127.233C364.856 127.583 364.537 127.957 364.352 128.355L362.761 127.787C363.045 127.124 363.424 126.608 363.897 126.239C364.376 125.865 364.896 125.604 365.46 125.457C366.028 125.306 366.587 125.23 367.136 125.23C367.486 125.23 367.889 125.273 368.343 125.358C368.803 125.438 369.245 125.607 369.672 125.862C370.102 126.118 370.46 126.504 370.744 127.02C371.028 127.536 371.17 128.227 371.17 129.094V136.281H369.494V134.804H369.409C369.295 135.041 369.106 135.294 368.841 135.564C368.575 135.834 368.223 136.063 367.782 136.253C367.342 136.442 366.805 136.537 366.17 136.537ZM366.426 135.031C367.089 135.031 367.647 134.901 368.102 134.641C368.561 134.38 368.907 134.044 369.139 133.632C369.376 133.22 369.494 132.787 369.494 132.332V130.798C369.423 130.884 369.267 130.962 369.025 131.033C368.788 131.099 368.514 131.158 368.201 131.21C367.894 131.258 367.593 131.3 367.299 131.338C367.011 131.371 366.776 131.4 366.596 131.423C366.161 131.48 365.753 131.572 365.375 131.7C365.001 131.823 364.698 132.01 364.466 132.261C364.238 132.508 364.125 132.844 364.125 133.27C364.125 133.852 364.34 134.293 364.771 134.591C365.207 134.884 365.758 135.031 366.426 135.031ZM375.906 121.736V136.281H374.229V121.736H375.906ZM384.828 136.281V121.736H386.589V134.719H393.35V136.281H384.828ZM396.078 136.281V121.736H397.839V134.719H404.6V136.281H396.078ZM418.466 126.281H416.705C416.6 125.775 416.418 125.33 416.158 124.946C415.902 124.562 415.589 124.241 415.22 123.98C414.856 123.715 414.451 123.516 414.006 123.384C413.561 123.251 413.097 123.185 412.614 123.185C411.733 123.185 410.935 123.407 410.22 123.852C409.51 124.297 408.944 124.953 408.523 125.82C408.106 126.686 407.898 127.749 407.898 129.009C407.898 130.268 408.106 131.331 408.523 132.197C408.944 133.064 409.51 133.72 410.22 134.165C410.935 134.61 411.733 134.832 412.614 134.832C413.097 134.832 413.561 134.766 414.006 134.634C414.451 134.501 414.856 134.304 415.22 134.044C415.589 133.779 415.902 133.455 416.158 133.071C416.418 132.683 416.6 132.238 416.705 131.736H418.466C418.333 132.479 418.092 133.144 417.741 133.732C417.391 134.319 416.955 134.818 416.435 135.23C415.914 135.637 415.329 135.947 414.68 136.161C414.036 136.374 413.348 136.48 412.614 136.48C411.373 136.48 410.27 136.177 409.304 135.571C408.338 134.965 407.578 134.103 407.024 132.986C406.47 131.868 406.193 130.543 406.193 129.009C406.193 127.474 406.47 126.149 407.024 125.031C407.578 123.914 408.338 123.052 409.304 122.446C410.27 121.84 411.373 121.537 412.614 121.537C413.348 121.537 414.036 121.643 414.68 121.857C415.329 122.07 415.914 122.382 416.435 122.794C416.955 123.201 417.391 123.698 417.741 124.286C418.092 124.868 418.333 125.533 418.466 126.281Z" fill="black"/>
<path d="M171.002 228.781C217.5 226.781 252.75 210.955 275 167.281H285C285.163 170.83 284.538 172.647 283.002 175.781L298.002 189.781L275.502 218.281L260.002 204.281C255.079 211.436 251.373 214.47 243.002 218.281L251.502 236.281L217.502 252.781L210.5 235.781C202.114 238.409 200.147 240.297 187.502 239.781V261.781H169.502L171.002 228.781Z" fill="black" stroke="black"/>
<path d="M76 63.281C109 -15.7185 223 -21.2191 262.5 56.2803H168C154.727 60.7048 150.584 66.4876 145 81.2803V130.28C153.987 147.649 160.326 152.723 174 153.28H262.5C214.132 230.365 113 222.28 79.5 150.78H27C12.0339 147.224 7.10152 141.305 1 127.781V107.781V87.7812C7.41857 72.4816 13.6746 67.2857 27 63.281H76Z" fill="#E30B18" stroke="#E30B18"/>
<path d="M190.5 67.7358H206.227L217.045 94.0994H217.591L228.409 67.7358H244.136V114.281H231.773V87.3722H231.409L221.045 113.918H213.591L203.227 87.1903H202.864V114.281H190.5V67.7358ZM250.125 114.281V67.7358H283.67V77.9176H262.761V85.9176H281.943V96.0994H262.761V104.099H283.58V114.281H250.125ZM289.938 114.281V67.7358H323.483V77.9176H302.574V85.9176H321.756V96.0994H302.574V104.099H323.392V114.281H289.938ZM354.841 82.2812C354.72 80.7661 354.152 79.5843 353.136 78.7358C352.136 77.8873 350.614 77.4631 348.568 77.4631C347.265 77.4631 346.197 77.6222 345.364 77.9403C344.545 78.2434 343.939 78.66 343.545 79.1903C343.152 79.7206 342.947 80.3267 342.932 81.0085C342.902 81.5691 343 82.0767 343.227 82.5312C343.47 82.9706 343.848 83.3722 344.364 83.7358C344.879 84.0843 345.538 84.4025 346.341 84.6903C347.144 84.9782 348.098 85.2358 349.205 85.4631L353.023 86.2812C355.598 86.8267 357.803 87.5464 359.636 88.4403C361.47 89.3343 362.97 90.3873 364.136 91.5994C365.303 92.7964 366.159 94.1449 366.705 95.6449C367.265 97.1449 367.553 98.7812 367.568 100.554C367.553 103.615 366.788 106.205 365.273 108.327C363.758 110.448 361.591 112.062 358.773 113.168C355.97 114.274 352.598 114.827 348.659 114.827C344.614 114.827 341.083 114.228 338.068 113.031C335.068 111.834 332.735 109.993 331.068 107.509C329.417 105.009 328.583 101.812 328.568 97.9176H340.568C340.644 99.3419 341 100.539 341.636 101.509C342.273 102.478 343.167 103.213 344.318 103.713C345.485 104.213 346.871 104.463 348.477 104.463C349.826 104.463 350.955 104.296 351.864 103.963C352.773 103.63 353.462 103.168 353.932 102.577C354.402 101.986 354.644 101.312 354.659 100.554C354.644 99.8419 354.409 99.2206 353.955 98.6903C353.515 98.1449 352.788 97.66 351.773 97.2358C350.758 96.7964 349.386 96.3873 347.659 96.0085L343.023 95.0085C338.902 94.1146 335.652 92.6222 333.273 90.5312C330.909 88.4252 329.735 85.554 329.75 81.9176C329.735 78.9631 330.523 76.3797 332.114 74.1676C333.72 71.9403 335.939 70.2055 338.773 68.9631C341.621 67.7206 344.886 67.0994 348.568 67.0994C352.326 67.0994 355.576 67.7282 358.318 68.9858C361.061 70.2434 363.174 72.0161 364.659 74.304C366.159 76.5767 366.917 79.2358 366.932 82.2812H354.841ZM397.466 82.2812C397.345 80.7661 396.777 79.5843 395.761 78.7358C394.761 77.8873 393.239 77.4631 391.193 77.4631C389.89 77.4631 388.822 77.6222 387.989 77.9403C387.17 78.2434 386.564 78.66 386.17 79.1903C385.777 79.7206 385.572 80.3267 385.557 81.0085C385.527 81.5691 385.625 82.0767 385.852 82.5312C386.095 82.9706 386.473 83.3722 386.989 83.7358C387.504 84.0843 388.163 84.4025 388.966 84.6903C389.769 84.9782 390.723 85.2358 391.83 85.4631L395.648 86.2812C398.223 86.8267 400.428 87.5464 402.261 88.4403C404.095 89.3343 405.595 90.3873 406.761 91.5994C407.928 92.7964 408.784 94.1449 409.33 95.6449C409.89 97.1449 410.178 98.7812 410.193 100.554C410.178 103.615 409.413 106.205 407.898 108.327C406.383 110.448 404.216 112.062 401.398 113.168C398.595 114.274 395.223 114.827 391.284 114.827C387.239 114.827 383.708 114.228 380.693 113.031C377.693 111.834 375.36 109.993 373.693 107.509C372.042 105.009 371.208 101.812 371.193 97.9176H383.193C383.269 99.3419 383.625 100.539 384.261 101.509C384.898 102.478 385.792 103.213 386.943 103.713C388.11 104.213 389.496 104.463 391.102 104.463C392.451 104.463 393.58 104.296 394.489 103.963C395.398 103.63 396.087 103.168 396.557 102.577C397.027 101.986 397.269 101.312 397.284 100.554C397.269 99.8419 397.034 99.2206 396.58 98.6903C396.14 98.1449 395.413 97.66 394.398 97.2358C393.383 96.7964 392.011 96.3873 390.284 96.0085L385.648 95.0085C381.527 94.1146 378.277 92.6222 375.898 90.5312C373.534 88.4252 372.36 85.554 372.375 81.9176C372.36 78.9631 373.148 76.3797 374.739 74.1676C376.345 71.9403 378.564 70.2055 381.398 68.9631C384.246 67.7206 387.511 67.0994 391.193 67.0994C394.951 67.0994 398.201 67.7282 400.943 68.9858C403.686 70.2434 405.799 72.0161 407.284 74.304C408.784 76.5767 409.542 79.2358 409.557 82.2812H397.466ZM415 114.281V67.7358H435.091C438.545 67.7358 441.568 68.4176 444.159 69.7812C446.75 71.1449 448.765 73.0616 450.205 75.5312C451.644 78.0009 452.364 80.8873 452.364 84.1903C452.364 87.5237 451.621 90.41 450.136 92.8494C448.667 95.2888 446.598 97.1676 443.932 98.4858C441.28 99.804 438.182 100.463 434.636 100.463H422.636V90.6449H432.091C433.576 90.6449 434.841 90.3873 435.886 89.8722C436.947 89.3419 437.758 88.5919 438.318 87.6222C438.894 86.6525 439.182 85.5085 439.182 84.1903C439.182 82.857 438.894 81.7206 438.318 80.7812C437.758 79.8267 436.947 79.0994 435.886 78.5994C434.841 78.0843 433.576 77.8267 432.091 77.8267H427.636V114.281H415Z" fill="black"/>
</svg>
