<svg width="61" height="61" viewBox="0 0 61 61" fill="none" xmlns="http://www.w3.org/2000/svg">
<rect x="2.0022" y="2.0022" width="56.0617" height="56.0617" rx="28.0308" stroke="#1D476D" stroke-width="4.00441"/>
<path fill-rule="evenodd" clip-rule="evenodd" d="M37.4999 30.0023C38.6636 30.0026 39.8114 29.7321 40.8524 29.2121C41.8935 28.6922 42.7993 27.9372 43.4982 27.0067C44.1971 26.0763 44.6699 24.9959 44.8791 23.8512C45.0884 22.7065 45.0284 21.5288 44.7039 20.4112C44.5025 19.7148 43.6389 19.5756 43.1268 20.0898L38.7834 24.4311C38.6023 24.6175 38.3573 24.7284 38.0977 24.7415C37.8381 24.7546 37.5832 24.669 37.3842 24.5018C36.7117 23.9202 36.0822 23.2908 35.5007 22.6183C35.3335 22.4193 35.2478 22.1644 35.2609 21.9048C35.2741 21.6452 35.385 21.4002 35.5714 21.2191L39.9148 16.8735C40.429 16.3614 40.2898 15.4979 39.5934 15.2964C38.4645 14.9694 37.2746 14.912 36.1195 15.129C34.9644 15.346 33.8764 15.8313 32.9432 16.5458C32.0101 17.2603 31.2577 18.184 30.7469 19.2425C30.2361 20.301 29.981 21.4646 30.0023 22.6397C30.0409 24.7611 29.7173 27.1246 28.0438 28.4252L16.6656 37.2749C16.1822 37.6508 15.7842 38.1252 15.4982 38.6666C15.2121 39.208 15.0445 39.8041 15.0064 40.4153C14.9683 41.0265 15.0607 41.6387 15.2774 42.2115C15.4941 42.7842 15.8301 43.3043 16.2632 43.7372C16.6963 44.1702 17.2165 44.506 17.7893 44.7225C18.3621 44.939 18.9745 45.0312 19.5856 44.9929C20.1968 44.9546 20.7928 44.7868 21.3341 44.5005C21.8755 44.2143 22.3497 43.8161 22.7254 43.3325L31.5751 31.9565C32.8757 30.2852 35.2392 29.9595 37.3606 29.998L37.4999 30.0023ZM19.2863 42.3233C19.7125 42.3233 20.1212 42.154 20.4226 41.8526C20.724 41.5512 20.8933 41.1424 20.8933 40.7162C20.8933 40.29 20.724 39.8812 20.4226 39.5798C20.1212 39.2784 19.7125 39.1091 19.2863 39.1091C18.86 39.1091 18.4513 39.2784 18.1499 39.5798C17.8485 39.8812 17.6792 40.29 17.6792 40.7162C17.6792 41.1424 17.8485 41.5512 18.1499 41.8526C18.4513 42.154 18.86 42.3233 19.2863 42.3233Z" fill="#1D476D"/>
</svg>
